<?xml version="1.0" encoding="UTF-8" standalone="no"?>
<svg width="145px" height="34px" viewBox="0 0 145 34" version="1.1" xmlns="http://www.w3.org/2000/svg" xmlns:xlink="http://www.w3.org/1999/xlink">
    <!-- Generator: Sketch 3.7.2 (28276) - http://www.bohemiancoding.com/sketch -->
    <title>Group</title>
    <desc>Created with Sketch.</desc>
    <defs></defs>
    <g id="Home" stroke="none" stroke-width="1" fill="none" fill-rule="evenodd">
        <g id="Desktop-HD" transform="translate(-248.000000, -9.000000)">
            <g id="Group" transform="translate(250.000000, 10.000000)">
                <path d="M0.922521072,0.821813725 C0.928695703,0.832794118 1.29985964,0.589509804 1.30569124,0.600147059 C1.33313404,0.6475 0.0474386299,2.88990196 0.0755675049,2.93794118 C0.121191168,3.01720588 4.37962842,0.331813725 4.43142672,0.422058824 C4.50895264,0.556568627 0.15789592,4.37294118 0.231648458,4.50093137 C0.332157731,4.67455882 7.45356561,0.148578431 7.53212064,0.284803922 C7.62817046,0.45122549 0.93658551,5.53411765 1.02611766,5.68887255 C1.16367472,5.92769608 10.3179084,0.0569607843 10.4331682,0.256323529 C10.5717543,0.496519608 -0.113787849,7.67872549 0.036804543,7.9395098 C0.233020598,8.27921569 13.2155255,-0.102598039 13.4021366,0.220637255 C13.6086437,0.578872549 0.963342244,8.39313725 1.17087846,8.75240196 C1.37224004,9.10137255 14.9540272,0.309166667 15.1632786,0.671519608 C15.4202119,1.11656863 -0.193371983,10.7257843 0.00181496667,11.0644608 C0.201461373,11.4103431 17.319597,0.516764706 17.5562912,0.926813725 C17.847871,1.43259804 -0.17210381,12.0015686 0.128737939,12.5231373 C0.462511054,13.1020098 20.3242411,0.179460784 20.6185652,0.689705882 C20.9317562,1.23254902 1.10192841,12.6696569 1.41820674,13.2176471 C1.71253082,13.727549 23.1820662,-0.051127451 23.4849662,0.473872549 C23.7686562,0.965245098 1.36640844,14.0651961 1.75197985,14.7336275 C2.1653371,15.450098 26.6734771,-0.392205882 26.9911275,0.1575 C27.406886,0.878431373 1.39899677,15.5351961 1.84185504,16.3017647 C2.23634536,16.9856373 27.7121872,0.329754902 28.1581328,1.10318627 C28.5810951,1.83544118 0.85734441,17.6962745 1.18116951,18.2576471 C1.57497376,18.9401471 32.1774746,-0.597745098 32.5908319,0.118039216 C33.0264864,0.873284314 1.50465157,18.6848529 1.93618968,19.4322059 C2.44731192,20.3181863 31.0406564,1.44289216 31.5517787,2.32887255 C32.063587,3.21553922 0.469714791,20.5275 0.99695968,21.4419608 C1.44496347,22.2177941 30.6897316,3.45573529 31.0526627,4.08401961 C31.4310303,4.7397549 0.52391433,22.2517647 0.947219596,22.9853922 C1.36229202,23.7042647 31.8615393,4.08436275 32.3150317,4.86980392 C32.6975158,5.53240196 0.591492238,23.4198039 1.13211549,24.3572549 C1.50670978,25.0057843 30.4736195,6.45441176 30.8880058,7.17259804 C31.339783,7.95529412 0.265265894,25.4573529 0.693373651,26.1992157 C1.14377869,26.9791667 30.7593677,7.79745098 31.2087436,8.57602941 C31.7198659,9.46166667 1.08992218,26.5083824 1.51425655,27.2437255 C2.03841413,28.1516667 32.2388779,8.66215686 32.601466,9.29009804 C33.1424323,10.227549 0.815494133,28.019902 1.34754151,28.9419118 C1.70498405,29.5609314 30.625241,10.9083333 31.1123508,11.7521078 C31.4972361,12.4188235 0.180536234,30.3161765 0.603498465,31.0494608 C1.09438164,31.8994118 31.8292941,11.9216176 32.3030255,12.742402 C32.7355927,13.4928431 1.28648127,31.017549 1.76158483,31.8407353 C2.14715624,32.5091667 30.7888687,14.2590686 31.1432239,14.872598 C31.5195334,15.524902 5.56858795,30.3618137 5.88520931,30.9108333 C6.3273815,31.6763725 30.2612808,16.0722059 30.5905944,16.6425 C30.8585048,17.1064216 8.50874146,30.2231863 8.80237947,30.7320588 C9.20784691,31.4344608 31.7836704,16.7248529 32.1020069,17.2762745 C32.4220586,17.8314706 10.9744775,30.3734804 11.3037911,30.9444608 C11.566899,31.4008333 30.1312705,19.2908333 30.46916,19.8762255 C30.7651993,20.3895588 12.7970228,31.0226961 13.0673344,31.4914216 C13.3287271,31.9440196 31.4838577,20.1764706 31.7774958,20.6860294 C32.0306556,21.1238725 16.8842855,30.3213235 17.1127469,30.7176471 C17.3566448,31.1393627 30.6403345,22.4411765 30.84101,22.7891176 C30.9998353,23.0639706 17.6341602,31.5113235 17.7957297,31.7909804 C17.9919457,32.1310294 32.2724954,23.0282843 32.4464141,23.329902 C32.6107279,23.6143627 21.7869426,30.6627451 21.976298,30.9907843 C22.1028779,31.2103922 30.9507813,25.5194608 31.075646,25.7356373 C31.1970804,25.9459804 23.2534175,31.5168137 23.3532407,31.690098 C23.4657562,31.8846569 31.2214359,26.9167157 31.3205731,27.0889706 C31.4022154,27.2296569 26.7695269,31.0172059 26.8528844,31.1616667 C26.9187471,31.2762745 31.1236709,28.5503922 31.1861033,28.6588235 C31.2258954,28.7277941 29.8712499,30.9846078 29.901094,31.0364216 C29.9316241,31.0896078 32.4831189,29.4686275 32.5160502,29.5259314" id="Stroke-7-Copy" stroke="#FFF100" stroke-width="2.236" stroke-linecap="round" stroke-linejoin="round"></path>
                <path d="M11.2068837,18.2556225 C11.2662288,17.771799 11.2960729,17.1486618 11.2960729,16.3862108 C11.2960729,15.4038088 11.258339,14.7364069 11.1852725,14.3846912 C11.0521749,13.65175 10.7345245,13.0797402 10.2330072,12.6690049 C9.64230082,12.1851814 8.96377747,11.9432696 8.196065,11.9432696 C7.16284339,11.9432696 6.35465279,12.331701 5.77149319,13.1089069 C5.18833358,13.8864559 4.89709681,14.949152 4.89709681,16.2980245 C4.89709681,17.6911618 5.19965374,18.7871422 5.80476759,19.5863088 C6.40988143,20.3858186 7.23659593,20.7852304 8.28456805,20.7852304 C9.08178153,20.7852304 9.74589741,20.5539559 10.2776018,20.0920931 C10.80862,19.6302304 11.1183807,19.0184167 11.2068837,18.2556225 M8.04135619,10.4914559 C9.49273753,10.4914559 10.5774144,11.0562598 11.2960729,12.1851814 L11.2960729,9.96371078 C11.2960729,9.37728922 11.2809793,9.01802451 11.2518213,8.88591667 C11.1780688,8.43160294 10.9729338,8.20410294 10.6360734,8.20410294 C10.5187554,8.20410294 10.3537555,8.22606373 10.1417599,8.26998529 C9.92839206,8.31390686 9.76373523,8.33621078 9.64641724,8.33621078 C9.10407881,8.33621078 8.83308111,8.10184804 8.83308111,7.63243627 C8.83308111,7.14826961 9.19909952,6.90635784 9.93250848,6.90635784 C10.0498265,6.90635784 10.2621652,6.92111275 10.5705537,6.95027941 C11.0391396,6.99454412 11.2809793,7.0165049 11.2960729,7.0165049 C11.4277983,7.0165049 11.6181828,6.99797549 11.8675693,6.9612598 C12.1166127,6.92488725 12.3069972,6.90635784 12.4390657,6.90635784 C12.8493356,6.90635784 13.0548136,7.20042647 13.0548136,7.78753431 L13.0548136,8.02978922 C13.0400631,8.07439706 13.0253126,8.46351471 13.0109051,9.19782843 C13.0109051,9.28567157 12.9889509,9.85116176 12.9446994,10.8939559 C12.9151983,11.6286127 12.9007909,12.1865539 12.9007909,12.5684657 L12.9007909,14.7271422 L12.9007909,18.4059167 C12.9155414,19.3756225 12.9601359,19.9778284 13.0352606,20.2128775 C13.1096992,20.4479265 13.2884205,20.5649363 13.5724535,20.5649363 C13.7662683,20.5649363 13.9154886,20.5505245 14.0204573,20.5210147 C14.2592097,20.491848 14.4235235,20.4770931 14.5133987,20.4770931 C15.0653421,20.4770931 15.3414853,20.7190049 15.3414853,21.2028284 C15.3414853,21.7014069 15.0118286,21.9508676 14.3521722,21.9508676 C14.2053532,21.9508676 13.9816943,21.9319951 13.6815387,21.8956225 C13.38104,21.85925 13.1573811,21.8407206 13.0109051,21.8407206 C12.9669966,21.8407206 12.7982234,21.8554755 12.5052714,21.8846422 C12.3289514,21.9289069 12.1749287,21.9508676 12.0432032,21.9508676 C11.6476838,21.9508676 11.4494095,21.6869951 11.4494095,21.1589069 L11.4494095,21.0491029 L11.4494095,20.6750833 C10.6744933,21.7161618 9.54899528,22.236701 8.07257238,22.236701 C6.58139897,22.236701 5.38214839,21.694201 4.47550672,20.6088578 C3.56920809,19.524201 3.11605877,18.1015539 3.11605877,16.3419461 C3.11605877,14.5679265 3.56303346,13.1493971 4.45732586,12.0863578 C5.35127523,11.0233186 6.54640939,10.4914559 8.04135619,10.4914559" id="Fill-9-Copy" fill="#EC008B"></path>
                <path d="M17.1222489,22.2367353 C16.741137,22.2367353 16.418684,22.1008529 16.1548901,21.8297745 C15.8910961,21.5586961 15.7590276,21.2323725 15.7590276,20.8508039 C15.7590276,20.4699216 15.8910961,20.143598 16.1548901,19.8721765 C16.418684,19.601098 16.741137,19.4652157 17.1222489,19.4652157 C17.5033609,19.4652157 17.8261569,19.601098 18.0896078,19.8721765 C18.3537448,20.143598 18.4858133,20.4699216 18.4858133,20.8508039 C18.4858133,21.2323725 18.3537448,21.5586961 18.0896078,21.8297745 C17.8261569,22.1008529 17.5033609,22.2367353 17.1222489,22.2367353 M17.1222489,14.8023235 C16.741137,14.8023235 16.418684,14.6671275 16.1548901,14.3957059 C15.8910961,14.1242843 15.7590276,13.7983039 15.7590276,13.4167353 C15.7590276,13.0358529 15.8910961,12.7095294 16.1548901,12.4381078 C16.418684,12.1670294 16.741137,12.0311471 17.1222489,12.0311471 C17.5033609,12.0311471 17.8261569,12.1670294 18.0896078,12.4381078 C18.3537448,12.7095294 18.4858133,13.0358529 18.4858133,13.4167353 C18.4858133,13.7983039 18.3537448,14.1242843 18.0896078,14.3957059 C17.8261569,14.6671275 17.5033609,14.8023235 17.1222489,14.8023235" id="Fill-11-Copy" fill="#000000"></path>
                <path d="M26.071279,14.6046078 C26.071279,14.0181863 26.4376405,13.6808824 27.1707064,13.5926961 C27.0969539,13.0797059 26.8516838,12.6765196 26.4342101,12.3831373 C26.0163934,12.0897549 25.4778284,11.9432353 24.8181719,11.9432353 C23.8065615,11.9432353 22.9928824,12.3467647 22.3771344,13.1531373 C21.7617295,13.9595098 21.4536841,15.030098 21.4536841,16.3642157 C21.4536841,17.742598 21.7432057,18.8241667 22.3222488,19.6082353 C22.901292,20.3929902 23.7039941,20.7851961 24.7300119,20.7851961 C25.3752609,20.7851961 25.9354371,20.6019608 26.4122559,20.2351471 C26.8883885,19.8686765 27.2149579,19.3628922 27.3905919,18.717451 C27.5370678,18.2044608 27.6248848,17.9114216 27.6543858,17.8376471 C27.8156123,17.5446078 28.0505913,17.3977451 28.3579507,17.3977451 C28.6073372,17.3977451 28.8121292,17.4783824 28.9736987,17.6396569 C29.1352682,17.8012745 29.2155384,18.0064706 29.2155384,18.2555882 C29.2155384,18.622402 29.0982204,19.0623039 28.8639275,19.5752941 C28.6292915,20.0886275 28.350747,20.5137745 28.0282941,20.8510784 C27.1635027,21.7748039 26.041778,22.2366667 24.6641492,22.2366667 C23.1688594,22.2366667 21.9627481,21.7089216 21.0471875,20.6530882 C20.1309409,19.5972549 19.6729891,18.2116667 19.6729891,16.4959804 C19.6729891,14.6780392 20.1456914,13.2227941 21.091096,12.1302451 C22.0365006,11.0380392 23.2933811,10.4914216 24.8620804,10.4914216 C26.0345743,10.4914216 27.0091369,10.8105392 27.7864543,11.4484314 C28.5630857,12.0863235 28.9514014,12.8964706 28.9514014,13.8788725 C28.9514014,14.4213725 28.8014951,14.8684804 28.5009964,15.2201961 C28.2004977,15.5722549 27.8156123,15.7482843 27.3466834,15.7482843 C26.9799789,15.7482843 26.6760498,15.6384804 26.4342101,15.4185294 C26.1923704,15.1982353 26.071279,14.9271569 26.071279,14.6046078" id="Fill-13-Copy" fill="#58595B"></path>
                <path d="M39.9440972,13.8536618 C39.7190662,14.7550833 39.8171742,15.4495931 40.2377352,15.9375343 C40.5907183,16.0257206 41.1838259,15.8864069 42.017058,15.5195931 C42.2232221,15.20425 42.3580349,14.9187598 42.4218394,14.6631225 C42.652359,13.7393971 42.4040016,13.0074853 41.6774533,12.4670441 L41.3282436,12.3321912 C40.8774956,12.2196422 40.6147307,12.3140049 40.539606,12.61425 C40.2830158,12.8774363 40.0840555,13.2902304 39.9440972,13.8536618 M42.4410494,9.78542647 C44.002888,10.1748873 45.0254755,11.5151814 45.5070968,13.8049363 C45.5263067,14.4963578 45.4930323,15.0144951 45.4065875,15.3596912 C45.030278,16.8694951 43.5555703,17.79425 40.9824643,18.1339559 L40.9711441,18.1789069 C41.3248133,19.3840049 42.0050518,20.111799 43.0111737,20.3629755 C44.3627318,20.6999363 46.0926576,19.966652 48.2009511,18.1631225 C49.3943701,17.3437108 50.2464692,16.9978284 50.7569053,17.1251324 L50.8471236,17.1474363 L50.9147015,17.2599853 L50.802529,17.7108676 L50.7126538,17.8796912 C50.7181424,17.9850343 50.76308,18.0598382 50.8474666,18.1051324 C51.0351068,18.151799 51.2117698,18.0203775 51.3767697,17.7105245 L51.4669879,17.7328284 L51.4560108,17.7781225 C51.3287448,18.2887108 50.6680593,19.0175343 49.4749833,19.9645931 C49.276366,20.1862598 49.0962726,20.4604265 48.9350461,20.7874363 C48.493903,20.7651324 48.2424583,20.8776814 48.180712,21.1257696 C47.0119916,22.294152 45.5225333,22.9598382 43.7109652,23.1224853 C43.1854355,23.1187108 42.7350304,23.0703284 42.359407,22.976652 L41.909345,22.8644461 C39.7087751,22.3157696 37.9280801,20.1800833 36.566917,16.4580735 L36.5895573,16.3678284 L37.2512719,12.7515049 L37.3414902,12.3908676 C37.7123111,10.9037108 38.4244518,10.0921912 39.4796277,9.95630882 C40.6658429,9.64576961 41.6527548,9.58880882 42.4410494,9.78542647" id="Fill-15-Copy" fill="#58595B"></path>
                <path d="M64.409495,3.84692157 C65.9209075,4.11216667 66.6766137,4.49819608 66.6766137,5.0050098 L66.7249816,5.29461765 C66.7249816,6.21937255 66.0015207,7.20040196 64.5542558,8.23804902 C61.8044867,11.1735882 60.0032096,13.3610882 59.1514535,14.800549 L58.861932,15.1865784 C59.2718589,15.9023627 60.2529391,16.9798137 61.8044867,18.4196176 C62.8493715,19.1837843 63.8788197,19.6178529 64.8918023,19.7225098 L66.0979135,21.0734412 C66.0979135,21.7895686 65.6955334,22.3039314 64.8918023,22.6175588 L64.361127,23.1000098 C63.4040592,23.1000098 62.0535302,22.5211373 60.3091969,21.363049 C59.7222639,20.9046176 58.5967659,19.8594216 56.9323597,18.2264314 C55.388702,19.585598 54.3112288,20.7436863 53.7002834,21.7006961 C52.8396084,22.9394216 52.1645154,24.1294216 51.6743183,25.2717255 C51.6743183,25.4000588 51.416699,25.5448627 50.9024894,25.7057941 C50.4603172,25.9631471 50.1382073,26.0918235 49.9375318,26.0918235 L49.5516173,26.0918235 C48.8765243,26.0918235 48.4741442,25.6255 48.3458491,24.6925098 L48.3458491,24.4512843 C48.3458491,23.5344216 49.1818256,22.070598 50.8541215,20.0601569 C52.6873008,17.7923627 53.7970193,16.2643725 54.1829337,15.4761863 C54.1345658,15.170451 53.1696081,14.0123627 51.2884039,12.0019216 C49.4871268,9.79005882 48.5870028,8.18177451 48.5870028,7.17638235 L48.5870028,6.74231373 C48.5870028,6.02652941 48.9729172,5.46344118 49.7447461,5.05339216 L49.793114,5.05339216 C51.1113978,5.24623529 51.7707112,5.50393137 51.7707112,5.82545098 C52.6070306,7.59466667 53.7321856,9.42839216 55.1475483,11.3262843 L56.3052916,12.6772157 L56.3536596,12.6772157 L60.8398721,7.27280392 C62.7046107,5.3025098 63.8949424,4.16054902 64.409495,3.84692157" id="Fill-17-Copy" fill="#61ABEB"></path>
                <path d="M70.7938234,11.5212549 L70.9330956,11.5212549 C71.5677105,11.5212549 72.1560156,11.6917941 72.698011,12.0321863 C72.6355787,12.1560588 72.6047055,12.326598 72.6047055,12.5431176 L72.8369402,13.1470392 L72.8369402,13.4256667 C72.5659425,13.9753725 71.993417,14.3933137 71.1186776,14.6798333 C70.2055183,14.9584608 69.6172132,15.3300784 69.3547913,15.7943431 C69.0138145,16.5221373 68.8436691,17.1106176 68.8436691,17.5594412 L68.8436691,17.8380686 C68.8436691,18.7593922 69.3702279,19.3012059 70.4226595,19.4635098 L71.0723679,19.4635098 C72.1097059,19.4635098 73.9048084,18.8908137 76.4587044,17.7450784 C77.5341193,17.2808137 78.2466032,17.0485098 78.5944407,17.0485098 L78.6877463,17.0485098 C79.2057292,17.5827745 79.4842737,17.9852745 79.5230366,18.2560098 C79.4842737,18.4186569 79.0198042,18.9295882 78.1303143,19.7888039 C77.8980795,20.2221863 77.6658448,20.439049 77.4336101,20.439049 C74.5706394,22.1420392 72.1251425,22.9937059 70.0978053,22.9937059 C67.9147301,22.9937059 66.4602615,21.956402 65.7326841,19.8817941 L65.6400646,18.8132647 L65.6400646,18.349 C65.6400646,15.9878725 66.6149703,13.9595882 68.5651246,12.2644902 C69.3547913,11.769 70.0978053,11.5212549 70.7938234,11.5212549" id="Fill-19-Copy" fill="#58595B"></path>
                <path d="M81.4275673,4.04343627 L81.5205298,4.04343627 C82.0464025,4.31451471 82.3095104,4.51559314 82.3095104,4.64735784 C81.8145108,8.04578922 81.5664965,11.7149559 81.5664965,15.6548578 L81.5664965,15.8871618 L81.6131493,17.1413284 C82.1239285,16.7233873 82.8511628,15.1905931 83.7955383,12.5432892 C84.1975754,11.6761814 84.584862,11.2424559 84.956369,11.2424559 C85.5213477,10.9020637 85.9082913,10.7318676 86.1171996,10.7318676 L86.3494344,10.7318676 C86.7127085,10.7318676 86.991596,11.087701 87.1850678,11.8000539 C87.5799011,12.7910343 88.0131544,14.7259853 88.4851706,17.6055931 C88.8258045,18.9990735 89.1969684,20.0521618 89.5996916,20.7641716 C89.8703462,21.2363284 90.2730694,21.7163775 90.807175,22.2039755 L90.807175,22.2506422 C90.4044518,22.8229951 89.9862921,23.2100539 89.5530388,23.4114755 C88.9105341,23.4114755 88.1373331,23.0244167 87.2313775,22.2506422 C86.7281451,21.6388284 86.3103284,20.7871618 85.9779274,19.6959853 L85.2349134,16.2124559 C84.7858805,16.7854951 84.0586462,18.3337304 83.0525244,20.8571618 C82.4878887,21.9874559 81.8995835,22.8542206 81.2882951,23.4581422 L80.9630978,23.4581422 C80.6457904,23.4581422 80.2434103,23.1949559 79.7559574,22.6685833 L79.291488,22.4362794 L79.3381407,21.9716716 C79.3381407,21.5303971 79.1988685,20.9268186 78.919981,20.16025 C79.0050537,20.16025 79.0825796,16.7388284 79.1522157,9.89564216 C79.3148143,7.32554412 79.5312695,5.59167157 79.8026102,4.69368137 C80.2125371,4.69368137 80.4914246,4.50804412 80.6379006,4.13642647 L80.6379006,4.0897598 C80.9167881,4.24485784 81.1332432,4.32206373 81.2882951,4.32206373 C81.3809145,4.32206373 81.4275673,4.22941667 81.4275673,4.04343627" id="Fill-21-Copy" fill="#58595B"></path>
                <path d="M93.5235667,19.4403824 L93.5702195,19.4867059 L93.6165292,19.4867059 C94.3670899,19.4867059 95.1255405,18.8364608 95.8915377,17.5363137 C97.2846031,15.802098 97.9813073,14.4552843 97.9813073,13.4951863 L97.9346546,13.4488627 L97.8420351,13.4488627 C97.3079295,13.6115098 96.3172443,14.431951 94.8699793,15.9105294 C93.9722566,17.0250392 93.5235667,18.202 93.5235667,19.4403824 M100.024081,9.87234314 L100.256316,9.87234314 C100.867604,9.87234314 101.269984,10.3832745 101.463456,11.4051373 C101.463456,11.9702843 101.788653,13.7041569 102.438705,16.607098 C102.903174,18.2558725 103.568319,19.6339118 104.435512,20.7408725 C104.961385,21.5149902 105.224493,22.1189118 105.224493,22.5522941 L105.224493,22.8309216 C105.224493,23.2025392 104.992601,23.3881765 104.528131,23.3881765 C104.071552,23.6671471 103.777571,23.8064608 103.646188,23.8064608 C102.786886,23.5045 102.012998,22.8230294 101.324184,21.7627353 C100.929694,21.011951 100.294736,19.5563627 99.4203394,17.3966569 L99.141795,17.0250392 C98.0042907,18.7980294 97.029385,20.1448431 96.216735,21.0661667 C95.1876298,22.1189118 94.0264561,22.6452843 92.734243,22.6452843 C91.4804499,22.6452843 90.6602531,21.9950392 90.2729665,20.694549 L90.2269998,20.0906275 L90.2269998,19.9049902 C90.2269998,18.1477843 91.3566142,15.9801863 93.6165292,13.4021961 C95.0171414,12.2568039 96.6420985,11.2816078 98.4917435,10.4762647 C99.0179593,10.0737647 99.5290815,9.87234314 100.024081,9.87234314" id="Fill-23-Copy" fill="#58595B"></path>
                <path d="M112.375436,8.98993137 C113.366464,9.24556863 113.861464,9.41576471 113.861464,9.50086275 C114.310497,10.5460588 114.681661,11.7226765 114.975642,13.0307157 C115.626036,17.4431176 116.121379,20.2921863 116.46167,21.5768922 C116.539195,21.5768922 116.616378,21.8713039 116.693904,22.4594412 L116.693904,22.5524314 C116.693904,23.0788039 116.35327,23.3419902 115.672346,23.3419902 L115.579383,23.3419902 C114.589041,23.3419902 114.093698,23.1560098 114.093698,22.7847353 C113.644666,21.8713039 113.273159,20.7101275 112.979178,19.3012059 L111.957962,13.1700294 L111.910966,13.1700294 C110.827662,14.5017451 109.543338,17.0715 108.057311,20.8803235 C107.446022,22.1420392 107.105731,22.7768431 107.036095,22.7847353 C107.036095,22.6917451 106.8807,22.6296373 106.571626,22.5987549 L105.875264,22.5987549 C105.596377,22.5987549 105.457105,22.4594412 105.457105,22.1808137 L104.900016,21.2052745 C105.333269,19.6494902 105.55041,16.9246373 105.55041,13.0307157 C106.208008,12.6436569 106.548642,12.4116961 106.571626,12.3341471 C106.571626,12.1793922 106.633715,12.1018431 106.757551,12.1018431 C107.902602,12.2720392 108.47547,12.4425784 108.47547,12.6127745 L108.336198,13.0307157 L108.382165,13.0773824 L108.428817,13.0773824 C109.024669,12.5197843 109.581758,11.761451 110.100427,10.8013529 C110.95184,9.59385294 111.710291,8.98993137 112.375436,8.98993137" id="Fill-25-Copy" fill="#58595B"></path>
                <path d="M119.248178,18.3720931 L119.248178,18.6973873 L119.34114,19.6725833 C120.176774,19.2083186 120.904351,18.4033186 121.523529,17.2572402 C122.3204,15.8641029 122.924141,14.8731225 123.334411,14.2849853 C123.303195,14.1611127 123.241449,14.0990049 123.148486,14.0990049 C122.444235,14.0990049 121.577386,14.5172892 120.548281,15.3531716 C119.681774,16.2899363 119.248178,17.2963578 119.248178,18.3720931 M123.241449,11.5446912 L123.612956,11.5446912 C125.121967,11.5446912 126.267361,11.93175 127.048795,12.7055245 C127.23472,12.7830735 127.327682,12.9069461 127.327682,13.0771422 C127.048795,13.2785637 126.894086,13.4178775 126.863213,13.4954265 C127.048795,17.5904265 127.141757,20.6402304 127.141757,22.6451814 C127.141757,26.5233186 126.81656,28.9853284 126.166852,30.0301814 C125.230023,31.9188088 123.961136,32.8634657 122.359163,32.8634657 C120.834715,32.8634657 119.503739,32.2595441 118.366234,31.0520441 L118.272929,30.8664069 L118.272929,30.6804265 C118.272929,30.2237108 117.870549,29.4959167 117.066132,28.4973873 C116.725498,27.9322402 116.555009,27.421652 116.555009,26.9649363 C116.555009,26.5312108 116.678845,26.221701 116.926516,26.0357206 L117.112098,26.0357206 C117.228387,26.0357206 117.476059,26.2059167 117.855112,26.546652 C118.226619,26.546652 118.412201,26.6238578 118.412201,26.7789559 C118.698635,27.6848382 119.472523,28.5824853 120.734206,29.4729265 C120.803842,29.4729265 121.221658,29.7515539 121.987656,30.3088088 C122.614381,30.1307206 123.156376,29.6973382 123.612956,29.0083186 C124.139172,27.9555735 124.402279,26.4694461 124.402279,24.5495931 L124.263007,18.836701 L124.309317,17.9074853 C123.984463,18.2094461 123.271979,19.2470931 122.173238,21.0197402 C121.291294,22.0724853 120.424445,22.5988578 119.573032,22.5988578 L119.248178,22.5988578 C118.691089,22.5988578 118.07191,22.2426814 117.390986,21.5306716 C116.86477,21.1899363 116.601662,20.7874363 116.601662,20.3228284 C116.415737,19.8118971 116.323118,19.2083186 116.323118,18.5114069 L116.323118,18.1861127 C116.323118,15.6009167 117.654094,13.6038578 120.316046,12.1949363 C121.314278,11.7612108 122.289526,11.5446912 123.241449,11.5446912" id="Fill-27-Copy" fill="#58595B"></path>
                <path d="M130.160329,14.7260882 C130.160329,15.6549608 130.423437,16.3052059 130.949652,16.6768235 C131.31327,16.6768235 131.854922,16.3981961 132.57461,15.8409412 C132.698102,15.4847647 132.760535,15.1752549 132.760535,14.9120686 C132.760535,13.9598627 132.342375,13.3096176 131.506741,12.9609902 L131.135234,12.9146667 C130.670765,12.9146667 130.438873,13.0694216 130.438873,13.3792745 C130.253291,13.6966765 130.160329,14.1455 130.160329,14.7260882 M131.599361,10.1743725 C133.209224,10.1743725 134.525107,11.2271176 135.546322,13.3326078 C135.731904,13.9986373 135.82521,14.5095686 135.82521,14.865402 C135.82521,16.4211863 134.617726,17.6753529 132.203103,18.6275588 L132.203103,18.6738824 C132.837717,19.7578529 133.673351,20.2996667 134.710689,20.2996667 C136.103411,20.2996667 137.604876,19.1697157 139.214739,16.9091275 C140.173865,15.8255 140.916879,15.2836863 141.443438,15.2836863 L141.536057,15.2836863 L141.629363,15.3763333 L141.629363,15.8409412 L141.58271,16.0265784 C141.613583,16.1271176 141.67533,16.1892255 141.768292,16.2125588 C141.961764,16.2125588 142.101036,16.0420196 142.186452,15.7016275 L142.279071,15.7016275 L142.279071,15.747951 C142.279071,16.2743235 141.814945,17.1414314 140.886349,18.3489314 C140.746734,18.6121176 140.638335,18.9219706 140.561152,19.2778039 C140.127899,19.3632451 139.9111,19.5334412 139.9111,19.7887353 C139.059687,21.2052059 137.775021,22.2116275 136.057101,22.8076569 C135.546322,22.9315294 135.097632,22.9936373 134.710689,22.9936373 L134.246219,22.9936373 C131.978758,22.9936373 129.734622,21.3527549 127.51347,18.0703039 L127.51347,17.9773137 L127.281235,14.3081471 L127.281235,13.9365294 C127.281235,12.4037353 127.776578,11.4439804 128.76692,11.0569216 C129.842678,10.4687843 130.787054,10.1743725 131.599361,10.1743725" id="Fill-29-Copy" fill="#58595B"></path>
            </g>
        </g>
    </g>
</svg>