<?xml version="1.0" encoding="UTF-8" standalone="no"?>
<svg width="103px" height="121px" viewBox="0 0 103 121" version="1.1" xmlns="http://www.w3.org/2000/svg" xmlns:xlink="http://www.w3.org/1999/xlink">
    <!-- Generator: Sketch 3.7.2 (28276) - http://www.bohemiancoding.com/sketch -->
    <title>Shape Copy 47</title>
    <desc>Created with Sketch.</desc>
    <defs></defs>
    <g id="Home" stroke="none" stroke-width="1" fill="none" fill-rule="evenodd" fill-opacity="0.1">
        <g id="Desktop-HD" transform="translate(-985.000000, -552.000000)" fill="#000000">
            <path d="M1036.7607,552 C1008.59549,552 985.823628,574.429268 985.823628,602.170732 C985.823628,629.912195 1008.59549,652.341463 1036.7607,652.341463 L1039.75699,652.341463 L1039.75699,673 C1069.12072,659.42439 1087.69777,628.731707 1087.69777,602.170732 C1087.69777,574.429268 1064.9259,552 1036.7607,552 L1036.7607,552 Z M1033.7644,605.121951 L1027.7718,616.926829 L1018.78291,616.926829 L1024.7755,605.121951 L1015.78661,605.121951 L1015.78661,587.414634 L1033.7644,587.414634 L1033.7644,605.121951 L1033.7644,605.121951 Z M1057.73478,605.121951 L1051.74219,616.926829 L1042.75329,616.926829 L1048.74589,605.121951 L1039.75699,605.121951 L1039.75699,587.414634 L1057.73478,587.414634 L1057.73478,605.121951 L1057.73478,605.121951 Z" id="Shape-Copy-47"></path>
        </g>
    </g>
</svg>